HIERARCHY
ROOT hips
{
	OFFSET 0.000000 104.274902 0.000000
	CHANNELS 6 Xposition Yposition Zposition Xrotation Yrotation Zrotation
	JOINT spine
	{
		OFFSET 0.000000 10.181549 0.131524
		CHANNELS 6 Xposition Yposition Zposition Xrotation Yrotation Zrotation
		JOINT chest
		{
			OFFSET 0.000000 9.893990 -1.470706
			CHANNELS 3 Xrotation Yrotation Zrotation
			JOINT upperChest
			{
				OFFSET 0.000000 9.220787 -1.370637
				CHANNELS 3 Xrotation Yrotation Zrotation
				JOINT neck
				{
					OFFSET 0.000000 16.740372 -2.049022
					CHANNELS 6 Xposition Yposition Zposition Xrotation Yrotation Zrotation
					JOINT head
					{
						OFFSET 0.000000 9.617859 1.684976
						CHANNELS 6 Xposition Yposition Zposition Xrotation Yrotation Zrotation
						JOINT headEnd
						{
							OFFSET 0.000000 22.037384 7.501072
							CHANNELS 6 Xposition Yposition Zposition Xrotation Yrotation Zrotation
							End Site
							{
								OFFSET 0.000000 23.106567 -2.828246
							}
						}
					}
				}
				JOINT rightShoulder
				{
					OFFSET -4.570000 11.014877 -2.160840
					CHANNELS 6 Xposition Yposition Zposition Xrotation Yrotation Zrotation
					JOINT rightUpperArm
					{
						OFFSET -10.592867 -0.524796 -2.232105
						CHANNELS 3 Xrotation Yrotation Zrotation
						JOINT rightLowerArm
						{
							OFFSET -27.841497 0.000000 -0.000002
							CHANNELS 3 Xrotation Yrotation Zrotation
							JOINT rightHand
							{
								OFFSET -28.328812 0.000000 -0.000001
								CHANNELS 3 Xrotation Yrotation Zrotation
								JOINT rightThumbProximal
								{
									OFFSET -2.464798 -1.573990 2.681911
									CHANNELS 6 Xposition Yposition Zposition Xrotation Yrotation Zrotation
									JOINT rightThumbIntermediate
									{
										OFFSET -3.244781 -1.873383 1.873376
										CHANNELS 3 Xrotation Yrotation Zrotation
										JOINT rightThumbDistal
										{
											OFFSET -2.646263 -1.527817 1.527818
											CHANNELS 6 Xposition Yposition Zposition Xrotation Yrotation Zrotation
											JOINT rightHandThumb4
											{
												OFFSET -1.994591 -1.151581 1.151575
												CHANNELS 6 Xposition Yposition Zposition Xrotation Yrotation Zrotation
												End Site
												{
													OFFSET -1.860176 -1.142715 1.365483
												}
											}
										}
									}
								}
								JOINT rightIndexProximal
								{
									OFFSET -9.108299 -0.517883 2.259803
									CHANNELS 6 Xposition Yposition Zposition Xrotation Yrotation Zrotation
									JOINT rightIndexIntermediate
									{
										OFFSET -3.699997 0.000000 0.000000
										CHANNELS 3 Xrotation Yrotation Zrotation
										JOINT rightIndexDistal
										{
											OFFSET -2.850006 0.000000 0.000000
											CHANNELS 3 Xrotation Yrotation Zrotation
											JOINT rightHandIndex4
											{
												OFFSET -2.772194 0.000000 0.000000
												CHANNELS 3 Xrotation Yrotation Zrotation
												End Site
												{
													OFFSET -2.772202 0.000000 -0.000484
												}
											}
										}
									}
								}
								JOINT rightMiddleProximal
								{
									OFFSET -9.532501 0.000000 -0.000000
									CHANNELS 6 Xposition Yposition Zposition Xrotation Yrotation Zrotation
									JOINT rightMiddleIntermediate
									{
										OFFSET -3.699997 0.000000 0.000000
										CHANNELS 3 Xrotation Yrotation Zrotation
										JOINT rightMiddleDistal
										{
											OFFSET -2.949997 0.000000 0.000000
											CHANNELS 3 Xrotation Yrotation Zrotation
											JOINT rightHandMiddle4
											{
												OFFSET -2.946594 0.000000 0.000000
												CHANNELS 3 Xrotation Yrotation Zrotation
												End Site
												{
													OFFSET -2.946602 0.000000 -0.000982
												}
											}
										}
									}
								}
								JOINT rightRingProximal
								{
									OFFSET -9.103600 -0.043106 -1.865100
									CHANNELS 6 Xposition Yposition Zposition Xrotation Yrotation Zrotation
									JOINT rightRingIntermediate
									{
										OFFSET -3.379303 0.000000 0.000000
										CHANNELS 3 Xrotation Yrotation Zrotation
										JOINT rightRingDistal
										{
											OFFSET -2.889694 0.000000 0.000000
											CHANNELS 3 Xrotation Yrotation Zrotation
											JOINT rightHandRing4
											{
												OFFSET -2.638802 0.000000 0.000000
												CHANNELS 3 Xrotation Yrotation Zrotation
												End Site
												{
													OFFSET -2.638802 0.000000 0.004218
												}
											}
										}
									}
								}
								JOINT rightLittleProximal
								{
									OFFSET -8.076698 -0.486725 -3.806299
									CHANNELS 6 Xposition Yposition Zposition Xrotation Yrotation Zrotation
									JOINT rightLittleIntermediate
									{
										OFFSET -3.600006 0.000000 0.000000
										CHANNELS 3 Xrotation Yrotation Zrotation
										JOINT rightLittleDistal
										{
											OFFSET -2.099998 0.000000 0.000000
											CHANNELS 3 Xrotation Yrotation Zrotation
											JOINT rightHandPinky4
											{
												OFFSET -2.115791 0.000000 0.000000
												CHANNELS 3 Xrotation Yrotation Zrotation
												End Site
												{
													OFFSET -2.115799 0.000000 0.000174
												}
											}
										}
									}
								}
							}
						}
					}
				}
				JOINT leftShoulder
				{
					OFFSET 4.570400 11.014679 -2.160816
					CHANNELS 6 Xposition Yposition Zposition Xrotation Yrotation Zrotation
					JOINT leftUpperArm
					{
						OFFSET 10.592373 -0.524597 -2.232116
						CHANNELS 3 Xrotation Yrotation Zrotation
						JOINT leftLowerArm
						{
							OFFSET 27.841488 0.000000 0.000001
							CHANNELS 3 Xrotation Yrotation Zrotation
							JOINT leftHand
							{
								OFFSET 28.328808 0.000000 -0.000000
								CHANNELS 3 Xrotation Yrotation Zrotation
								JOINT leftThumbProximal
								{
									OFFSET 2.466103 -1.576202 2.681698
									CHANNELS 6 Xposition Yposition Zposition Xrotation Yrotation Zrotation
									JOINT leftThumbIntermediate
									{
										OFFSET 3.243317 -1.872528 1.872530
										CHANNELS 3 Xrotation Yrotation Zrotation
										JOINT leftThumbDistal
										{
											OFFSET 2.647881 -1.528763 1.528754
											CHANNELS 6 Xposition Yposition Zposition Xrotation Yrotation Zrotation
											JOINT leftHandThumb4
											{
												OFFSET 1.998924 -1.154083 1.154080
												CHANNELS 6 Xposition Yposition Zposition Xrotation Yrotation Zrotation
												End Site
												{
													OFFSET 1.884041 -1.149155 1.337651
												}
											}
										}
									}
								}
								JOINT leftIndexProximal
								{
									OFFSET 9.109299 -0.518005 2.259900
									CHANNELS 6 Xposition Yposition Zposition Xrotation Yrotation Zrotation
									JOINT leftIndexIntermediate
									{
										OFFSET 3.699997 0.000000 0.000000
										CHANNELS 3 Xrotation Yrotation Zrotation
										JOINT leftIndexDistal
										{
											OFFSET 2.850006 0.000000 0.000000
											CHANNELS 3 Xrotation Yrotation Zrotation
											JOINT leftHandIndex4
											{
												OFFSET 2.774895 0.000000 0.000000
												CHANNELS 3 Xrotation Yrotation Zrotation
												End Site
												{
													OFFSET 2.774902 0.000000 -0.000072
												}
											}
										}
									}
								}
								JOINT leftMiddleProximal
								{
									OFFSET 9.533401 0.000000 0.000000
									CHANNELS 6 Xposition Yposition Zposition Xrotation Yrotation Zrotation
									JOINT leftMiddleIntermediate
									{
										OFFSET 3.699997 0.000000 0.000000
										CHANNELS 3 Xrotation Yrotation Zrotation
										JOINT leftMiddleDistal
										{
											OFFSET 2.949997 0.000000 0.000000
											CHANNELS 3 Xrotation Yrotation Zrotation
											JOINT leftHandMiddle4
											{
												OFFSET 2.952896 0.000000 0.000000
												CHANNELS 3 Xrotation Yrotation Zrotation
												End Site
												{
													OFFSET 2.952904 0.000000 0.000165
												}
											}
										}
									}
								}
								JOINT leftRingProximal
								{
									OFFSET 9.104500 -0.042999 -1.865101
									CHANNELS 6 Xposition Yposition Zposition Xrotation Yrotation Zrotation
									JOINT leftRingIntermediate
									{
										OFFSET 3.149994 0.000000 0.000000
										CHANNELS 3 Xrotation Yrotation Zrotation
										JOINT leftRingDistal
										{
											OFFSET 2.950005 0.000000 0.000000
											CHANNELS 3 Xrotation Yrotation Zrotation
											JOINT leftHandRing4
											{
												OFFSET 2.644302 0.000000 0.000000
												CHANNELS 3 Xrotation Yrotation Zrotation
												End Site
												{
													OFFSET 2.644302 0.000000 0.000083
												}
											}
										}
									}
								}
								JOINT leftLittleProximal
								{
									OFFSET 8.077805 -0.486893 -3.806302
									CHANNELS 6 Xposition Yposition Zposition Xrotation Yrotation Zrotation
									JOINT leftLittleIntermediate
									{
										OFFSET 3.600006 0.000000 0.000000
										CHANNELS 3 Xrotation Yrotation Zrotation
										JOINT leftLittleDistal
										{
											OFFSET 2.099998 0.000000 0.000000
											CHANNELS 3 Xrotation Yrotation Zrotation
											JOINT leftHandPinky4
											{
												OFFSET 2.125496 0.000000 0.000000
												CHANNELS 3 Xrotation Yrotation Zrotation
												End Site
												{
													OFFSET 2.125504 0.000000 -0.001254
												}
											}
										}
									}
								}
							}
						}
					}
				}
			}
		}
	}
	JOINT rightUpperLeg
	{
		OFFSET -8.207800 -6.751701 -1.599544
		CHANNELS 6 Xposition Yposition Zposition Xrotation Yrotation Zrotation
		JOINT rightLowerLeg
		{
			OFFSET 0.000004 -44.370152 0.345934
			CHANNELS 3 Xrotation Yrotation Zrotation
			JOINT rightFoot
			{
				OFFSET 0.000004 -44.423664 -3.043535
				CHANNELS 3 Xrotation Yrotation Zrotation
				JOINT rightToes
				{
					OFFSET 0.000001 -8.728691 10.710592
					CHANNELS 3 Xrotation Yrotation Zrotation
					JOINT rightToesEnd
					{
						OFFSET 0.000000 -0.000665 9.278101
						CHANNELS 3 Xrotation Yrotation Zrotation
						End Site
						{
							OFFSET 0.000000 -0.000665 9.278103
						}
					}
				}
			}
		}
	}
	JOINT leftUpperLeg
	{
		OFFSET 8.207800 -6.751701 -1.599544
		CHANNELS 6 Xposition Yposition Zposition Xrotation Yrotation Zrotation
		JOINT leftLowerLeg
		{
			OFFSET 0.000004 -44.370037 0.346940
			CHANNELS 3 Xrotation Yrotation Zrotation
			JOINT leftFoot
			{
				OFFSET 0.000004 -44.423611 -3.044388
				CHANNELS 3 Xrotation Yrotation Zrotation
				JOINT leftToes
				{
					OFFSET 0.000001 -8.728690 10.710592
					CHANNELS 3 Xrotation Yrotation Zrotation
					JOINT leftToesEnd
					{
						OFFSET 0.000000 -0.000680 9.278101
						CHANNELS 3 Xrotation Yrotation Zrotation
						End Site
						{
							OFFSET 0.000000 -0.000680 9.278101
						}
					}
				}
			}
		}
	}
}
MOTION
Frames: 4
Frame Time: 0.033333
21.861425 101.970039 2.580208 -6.468963 -7.101285 -2.216590 0.000003 10.181549 0.131524 3.932634 3.633720 -1.685101 1.179622 1.304993 0.100475 1.192276 1.296542 0.088577 -0.000002 16.740398 -2.049020 0.773284 -8.419176 -2.948548 0.000000 9.617835 1.684978 -10.782825 -16.764848 21.581759 -0.000006 22.037369 7.501064 -0.000000 -0.000001 -0.000002 -4.570004 11.014873 -2.160840 9.775921 -1.342429 14.941169 3.602307 48.771652 48.877660 0.000001 43.787660 0.000031 -7.725341 20.575849 14.641709 -2.464791 -1.573983 2.681894 18.491277 0.461460 -10.916087 1.284026 -32.757611 3.089016 -2.646262 -1.527814 1.527823 2.008730 -8.430461 1.114696 -1.994590 -1.151572 1.151575 0.000002 0.000002 0.000003 -9.108306 -0.517878 2.259795 1.258403 -7.086605 33.630748 2.022485 -5.163629 49.210034 -0.010977 -1.480968 26.094263 -0.000004 0.000000 -0.000000 -9.532513 0.000010 -0.000006 2.797125 -10.563251 41.829547 2.983425 -5.931496 62.147789 0.677646 -2.822832 28.169121 -0.000004 0.000001 0.000001 -9.103592 -0.043108 -1.865108 5.470770 -12.392332 53.115431 4.180675 -5.294067 69.059701 0.087073 -1.196716 30.064321 -0.000002 -0.000000 -0.000001 -8.076698 -0.486733 -3.806312 7.626051 -17.670799 63.229698 3.721782 -5.704260 74.376034 -0.631948 -1.628432 34.360390 -0.000004 0.000002 0.000006 4.570403 11.014682 -2.160816 6.268611 -7.626791 -6.452817 -8.758189 -6.067739 -70.121488 -0.000006 -12.596608 -0.000004 -24.908643 -19.767684 -13.195645 2.466107 -1.576216 2.681698 16.381420 -4.678319 10.879042 -1.038023 26.660578 -3.217458 2.647884 -1.528734 1.528757 1.373240 6.281002 -0.893502 1.998912 -1.154089 1.154082 -0.000001 -0.000003 0.000002 9.109304 -0.518012 2.259904 0.234876 4.485998 -17.961121 0.935797 3.915804 -32.713389 0.030269 0.785601 -9.858771 -0.000003 0.000000 -0.000000 9.533403 0.000008 0.000005 1.726408 10.113615 -24.088551 1.433153 4.681080 -42.040361 0.163151 1.458713 -11.953401 0.000003 -0.000000 0.000000 9.104518 -0.043001 -1.865099 4.680553 13.876669 -35.557435 2.248535 4.346999 -47.322891 0.531906 1.807088 -19.032918 -0.000002 -0.000001 0.000001 8.077814 -0.486895 -3.806295 7.838602 19.488159 -45.054998 1.869531 4.579833 -52.644373 0.332512 2.475350 -16.465742 -0.000001 -0.000000 0.000003 -8.207801 -6.751707 -1.599544 -4.784730 -11.954009 -6.390822 23.901813 0.945349 -4.104882 -12.292621 8.356195 -2.043441 -2.578180 0.000000 0.000004 -0.000000 0.000001 0.000001 8.207799 -6.751712 -1.599542 -7.271011 12.425512 1.640918 21.270613 9.909563 -6.676489 -10.547069 13.688917 8.080685 -5.146159 -0.000017 -0.000003 0.000000 0.000000 0.000000 
21.455692 101.981979 2.657631 -6.396616 -8.091577 -2.455390 0.000002 10.181545 0.131524 3.923761 3.450042 -1.686296 1.176453 1.236248 0.081737 1.188346 1.227685 0.070404 0.000000 16.740393 -2.049023 0.796555 -8.383629 -3.044153 0.000005 9.617828 1.684985 -10.545302 -16.431576 21.106029 0.000000 22.037369 7.501077 0.000002 -0.000001 0.000001 -4.569993 11.014910 -2.160842 9.929154 -1.455161 14.212984 3.256680 47.913582 50.301618 -0.000023 43.012573 0.000064 -14.582012 16.722456 19.680108 -2.464795 -1.573994 2.681888 18.491291 0.461432 -10.916107 1.284034 -32.757611 3.089047 -2.646265 -1.527819 1.527807 2.008714 -8.430482 1.114694 -1.994586 -1.151583 1.151581 0.000004 0.000002 0.000001 -9.108315 -0.517882 2.259791 1.306682 -7.157459 34.480154 2.087709 -5.218830 50.059409 0.011459 -1.566190 26.938032 -0.000001 0.000001 -0.000001 -9.532510 -0.000000 -0.000011 2.871547 -10.607482 42.686336 3.058055 -5.971845 63.000149 0.718200 -2.896904 29.014647 0.000001 0.000002 0.000001 -9.103601 -0.043104 -1.865114 5.569658 -12.395063 53.977165 4.262927 -5.315853 69.914199 0.113550 -1.279189 30.907979 0.000001 0.000001 -0.000001 -8.076701 -0.486719 -3.806311 7.705740 -17.708386 64.097425 3.802006 -5.733429 75.227526 -0.614500 -1.722323 35.203277 0.000001 0.000001 0.000002 4.570402 11.014691 -2.160817 6.264713 -7.697905 -6.476235 -6.367613 -3.263321 -69.819812 0.000005 -11.198147 0.000034 -24.594260 -22.262004 -9.183720 2.466102 -1.576204 2.681702 15.661451 -6.055867 10.810181 -1.778329 24.657760 -3.317628 2.647876 -1.528743 1.528746 1.123381 5.286379 -1.077297 1.998921 -1.154094 1.154082 0.000001 0.000001 0.000001 9.109289 -0.517999 2.259909 0.122228 3.805979 -15.166575 0.775134 3.650820 -29.637666 0.008426 0.604273 -8.058199 0.000001 -0.000001 0.000001 9.533400 0.000014 0.000004 1.540915 10.087427 -20.615114 1.167227 4.351474 -37.789613 0.123519 1.283144 -10.151895 -0.000000 -0.000000 0.000001 9.104493 -0.043002 -1.865094 4.543143 14.421150 -32.126768 1.880452 4.044888 -42.543032 0.460017 1.643412 -17.230592 -0.000001 -0.000000 -0.000000 8.077801 -0.486891 -3.806291 7.896081 20.300330 -41.404320 1.527203 4.242987 -47.858746 0.235044 2.185974 -13.431535 0.000000 0.000001 0.000000 -8.207801 -6.751712 -1.599544 -4.928565 -11.836837 -6.143575 23.851736 1.179197 -3.968628 -12.123235 9.086001 -1.707375 -2.670315 0.000006 0.000004 0.000000 -0.000001 -0.000001 8.207800 -6.751692 -1.599543 -7.538569 12.511027 2.209000 21.612687 9.916392 -6.776196 -10.721047 14.458003 7.803028 -5.210475 -0.000006 0.000003 -0.000001 0.000001 0.000000 
20.966890 101.994675 2.734299 -6.339910 -9.106526 -2.723284 -0.000001 10.181551 0.131523 3.883398 3.198702 -1.672979 1.164574 1.139574 0.064794 1.175435 1.130970 0.054402 -0.000002 16.740377 -2.049022 0.856713 -8.290646 -3.181067 -0.000002 9.617833 1.684977 -10.294614 -16.049205 20.441298 0.000006 22.037369 7.501074 0.000001 0.000001 -0.000002 -4.570005 11.014907 -2.160840 10.075671 -1.579160 13.378404 3.367276 46.802727 51.428698 -0.000031 41.988069 0.000076 -21.105577 13.693380 22.336962 -2.464811 -1.574005 2.681915 18.491296 0.461451 -10.916095 1.284035 -32.757628 3.089047 -2.646248 -1.527796 1.527825 2.008720 -8.430476 1.114691 -1.994594 -1.151569 1.151570 -0.000005 0.000000 0.000001 -9.108297 -0.517878 2.259814 1.352558 -7.222803 35.271650 2.149194 -5.269369 50.850803 0.033488 -1.645288 27.724163 -0.000000 -0.000001 -0.000001 -9.532513 0.000005 0.000003 2.941189 -10.647465 43.484642 3.128121 -6.008452 63.794363 0.756992 -2.965350 29.802421 0.000004 -0.000001 0.000001 -9.103600 -0.043106 -1.865095 5.661211 -12.395946 54.779924 4.339829 -5.335041 70.710319 0.139306 -1.355724 31.694018 -0.000001 -0.000000 0.000000 -8.076695 -0.486733 -3.806299 7.780502 -17.742344 64.905997 3.877159 -5.759537 76.020832 -0.597058 -1.809532 35.988557 -0.000002 0.000000 0.000001 4.570396 11.014712 -2.160818 6.262428 -7.809620 -6.566182 -4.136781 -0.440639 -69.393363 0.000017 -9.951049 -0.000004 -23.917815 -24.968380 -4.372693 2.466089 -1.576203 2.681696 14.877294 -7.519287 10.704887 -2.559720 22.523182 -3.453583 2.647889 -1.528738 1.528739 0.853806 4.226504 -1.277807 1.998917 -1.154090 1.154067 -0.000000 0.000000 0.000003 9.109296 -0.518016 2.259899 0.060526 3.071292 -12.191601 0.619792 3.359199 -26.359201 -0.008566 0.410222 -6.138012 -0.000001 -0.000000 -0.000002 9.533400 0.000002 0.000000 1.327093 10.045922 -16.908521 0.911552 3.979346 -33.259859 0.087358 1.094625 -8.230818 -0.000004 0.000000 -0.000002 9.104495 -0.042995 -1.865101 4.308617 15.000451 -28.444869 1.517299 3.690203 -37.449244 0.389072 1.466464 -15.308802 -0.000000 -0.000000 -0.000001 8.077803 -0.486895 -3.806302 7.823331 21.199558 -37.466221 1.194682 3.853723 -42.759423 0.148169 1.872168 -10.196684 0.000000 0.000001 -0.000000 -8.207804 -6.751714 -1.599544 -5.033604 -11.718801 -5.830168 23.806541 1.464823 -3.796666 -11.966464 9.766073 -1.470478 -2.759024 0.000003 -0.000002 -0.000000 -0.000000 -0.000000 8.207795 -6.751706 -1.599542 -7.822584 12.608400 2.863141 22.009699 9.925068 -6.856619 -10.890014 15.222405 7.449638 -5.252169 0.000012 0.000001 -0.000000 -0.000001 -0.000000 
20.392870 102.008484 2.809099 -6.303147 -10.116826 -3.006766 0.000002 10.181561 0.131524 3.837911 2.874592 -1.641428 1.152517 1.012951 0.048885 1.162069 1.004277 0.039779 -0.000004 16.740376 -2.049022 0.923557 -8.142904 -3.362990 0.000006 9.617858 1.684976 -10.049420 -15.632351 19.641455 0.000006 22.037399 7.501058 0.000000 -0.000001 -0.000002 -4.570000 11.014879 -2.160841 10.211921 -1.723948 12.421563 3.734400 45.439865 52.350562 -0.000005 40.722800 0.000042 -27.294414 11.844385 23.189160 -2.464800 -1.573992 2.681898 18.491301 0.461453 -10.916083 1.284019 -32.757628 3.089013 -2.646276 -1.527808 1.527819 2.008720 -8.430460 1.114702 -1.994590 -1.151586 1.151575 0.000001 -0.000001 -0.000000 -9.108315 -0.517889 2.259797 1.394663 -7.281087 35.984046 2.205108 -5.314149 51.563086 0.054249 -1.716194 28.431600 0.000001 -0.000000 -0.000001 -9.532507 0.000007 -0.000009 3.004194 -10.682490 44.203164 3.191599 -6.040540 64.509094 0.792665 -3.026506 30.511432 0.000001 0.000001 0.000002 -9.103614 -0.043107 -1.865110 5.743096 -12.395378 55.502291 4.409257 -5.351419 71.426737 0.163401 -1.424238 32.401389 -0.000004 -0.000001 -0.000001 -8.076704 -0.486723 -3.806305 7.848247 -17.772060 65.633815 3.945092 -5.782137 76.734785 -0.580304 -1.887789 36.695294 -0.000001 0.000003 -0.000000 4.570397 11.014704 -2.160818 6.261478 -7.976478 -6.737836 -2.123676 2.255251 -68.824627 -0.000004 -8.874056 -0.000002 -22.794090 -27.466001 1.115536 2.466110 -1.576204 2.681707 14.046627 -9.026717 10.560413 -3.362051 20.316311 -3.624860 2.647877 -1.528758 1.528748 0.571251 3.130721 -1.490302 1.998933 -1.154093 1.154081 0.000001 0.000005 -0.000000 9.109310 -0.518017 2.259911 0.060608 2.305298 -9.117494 0.476959 3.048608 -22.968420 -0.019309 0.208926 -4.151047 0.000001 0.000003 -0.000003 9.533405 0.000018 0.000011 1.090034 9.985784 -13.070961 0.678949 3.574312 -28.576234 0.056641 0.898382 -6.243133 0.000000 -0.000001 0.000000 9.104504 -0.042994 -1.865092 3.970152 15.588635 -24.608485 1.176372 3.290782 -32.182359 0.321947 1.280971 -13.320489 0.000002 -0.000001 0.000003 8.077802 -0.486894 -3.806285 7.595390 22.151459 -33.337310 0.888654 3.421555 -37.487401 0.077076 1.542800 -6.850275 0.000001 -0.000000 0.000002 -8.207800 -6.751704 -1.599543 -5.084663 -11.593829 -5.440925 23.770621 1.780704 -3.611323 -11.862195 10.351476 -1.405628 -2.815796 0.000005 0.000002 -0.000000 0.000002 0.000000 8.207802 -6.751688 -1.599544 -8.105628 12.691923 3.569761 22.439236 9.935528 -6.891359 -11.035839 15.988834 7.008637 -5.269654 -0.000004 -0.000000 0.000000 -0.000000 0.000000 
